********* Paper.Man.2009.DVDRiP.XviD.OPTIONAL-MULTISUB-Zen_Bud *********

Format                           : AVI
File size                        : 707 MiB
Duration                         : 1h 46mn
Overall bit rate                 : 931 Kbps

Video

Format                           : MPEG-4 Visual
Codec ID/Hint                    : XviD
Duration                         : 1h 46mn
Bit rate                         : 790 Kbps
Width                            : 720 pixels
Height                           : 556 pixels
Display aspect ratio             : 16:9
Stream size                      : 600 MiB (85%)
Writing library                  : XviD 1.1.2 (UTC 2006-11-01)

Audio

Format                           : MPEG Audio
Codec ID/Hint                    : MP3
Duration                         : 1h 46mn
Bit rate                         : 128 Kbps
Channel(s)                       : 2 channels
Sampling rate                    : 48.0 KHz
Stream size                      : 97.2 MiB (14%)
Writing library                  : LAME3.98
Language                         : English

Text #1
Language                         : Danish

Text #2
Language                         : Swedish

Text #3
Language                         : Norwegian

Text #4
Language                         : Finnish



A washed-up writer forms an unlikely friendship with a teenager from Long Island
